<?xml version="1.0" standalone="no"?>
<!DOCTYPE svg PUBLIC "-//W3C//DTD SVG 20010904//EN"
 "http://www.w3.org/TR/2001/REC-SVG-20010904/DTD/svg10.dtd">
<svg version="1.0" xmlns="http://www.w3.org/2000/svg"
 width="573.000000pt" height="600.000000pt" viewBox="0 0 573.000000 600.000000"
 preserveAspectRatio="xMidYMid meet">
<metadata>
Created by potrace 1.10, written by Peter Selinger 2001-2011
</metadata>
<g transform="translate(0.000000,600.000000) scale(0.100000,-0.100000)"
fill="#000000" stroke="none">
<path d="M395 5953 c-23 -5 -42 -12 -110 -43 -109 -49 -247 -227 -262 -338 -3
-23 -10 -45 -14 -48 -5 -3 -8 -404 -8 -892 1 -488 3 -878 6 -867 8 39 46 160
59 192 8 17 14 36 14 42 0 6 4 19 10 29 13 24 50 110 50 117 0 3 13 33 30 67
17 33 30 64 30 69 0 5 17 37 39 72 21 35 42 73 45 85 4 12 11 22 16 22 5 0 11
9 15 19 5 16 50 89 107 175 72 106 166 216 294 344 85 83 158 152 162 152 5 0
20 9 33 20 41 33 43 35 84 60 22 13 46 30 53 37 7 7 18 13 24 13 6 0 25 10 42
23 47 34 183 97 210 97 8 0 17 4 20 9 3 5 23 12 43 15 21 4 45 9 54 12 10 3
19 -3 23 -13 8 -20 -30 -59 -68 -69 -14 -3 -26 -10 -26 -15 0 -5 -5 -9 -11 -9
-20 0 -299 -175 -319 -199 -3 -4 -27 -24 -55 -46 -64 -50 -220 -206 -270 -270
-22 -27 -42 -52 -46 -55 -3 -3 -23 -30 -44 -60 -21 -30 -41 -57 -45 -60 -3 -3
-17 -23 -30 -45 -13 -22 -27 -42 -31 -45 -4 -3 -13 -17 -19 -30 -5 -14 -24
-47 -41 -75 -17 -27 -35 -62 -42 -77 -6 -16 -15 -28 -18 -28 -4 0 -10 -13 -14
-30 -4 -16 -10 -30 -15 -30 -5 0 -11 -13 -15 -30 -4 -16 -10 -30 -15 -30 -5 0
-12 -14 -15 -32 -4 -18 -11 -39 -16 -48 -20 -38 -63 -149 -76 -195 -3 -11 -11
-34 -19 -52 -8 -17 -14 -41 -14 -52 0 -12 -4 -29 -10 -39 -14 -25 -51 -200
-71 -332 -5 -36 -15 -96 -22 -135 -16 -92 -16 -507 0 -600 7 -38 17 -97 22
-130 13 -83 36 -189 55 -260 9 -33 21 -78 27 -100 6 -22 14 -44 20 -50 5 -5 9
-16 9 -25 0 -8 7 -28 15 -44 8 -15 15 -33 15 -38 0 -6 7 -26 16 -46 8 -21 21
-50 28 -67 69 -160 147 -311 214 -414 20 -31 41 -64 47 -73 28 -46 86 -127
114 -158 17 -19 41 -49 53 -67 29 -41 218 -227 283 -278 28 -22 55 -44 62 -50
30 -25 43 -34 116 -82 43 -28 107 -66 142 -84 51 -26 65 -38 65 -55 0 -45 -17
-43 -160 24 -41 19 -76 39 -78 43 -2 5 -8 9 -14 9 -9 0 -119 63 -143 82 -5 5
-32 25 -60 45 -90 67 -263 233 -373 357 -101 115 -252 326 -283 396 -5 13 -14
27 -18 30 -4 3 -38 68 -76 145 -98 203 -115 239 -115 249 0 4 -6 22 -14 39 -8
18 -24 61 -35 97 -11 36 -22 72 -25 80 -2 8 -5 -368 -5 -836 l-1 -851 307 -7
c1130 -25 1926 -32 1931 -18 2 6 -18 13 -45 17 -26 3 -55 10 -63 14 -9 5 -30
12 -49 16 -18 4 -44 13 -59 21 -15 8 -32 14 -39 14 -29 0 -289 126 -412 199
-51 31 -101 61 -110 66 -146 87 -461 368 -569 510 -26 33 -57 71 -69 85 -13
14 -23 28 -23 31 0 3 -9 17 -20 30 -11 13 -23 29 -28 34 -7 9 -84 136 -130
215 -24 41 -92 178 -92 186 0 6 -37 92 -49 114 -5 9 -12 31 -16 50 -4 19 -11
40 -15 45 -4 6 -11 26 -15 45 -4 19 -11 41 -16 50 -17 33 -54 201 -75 345 -33
221 -33 580 0 785 21 138 57 288 82 347 8 17 14 38 14 46 0 9 4 18 9 21 5 3
12 22 16 42 3 20 10 44 15 53 5 9 21 45 36 81 30 73 75 168 106 220 57 98 122
206 127 210 3 3 18 23 33 45 15 22 38 52 50 67 13 14 30 36 38 49 56 85 315
338 442 433 57 42 108 80 113 84 59 46 348 202 375 202 9 0 20 4 25 9 23 21
228 82 340 101 66 11 196 12 214 1 8 -5 11 -16 7 -29 -7 -19 -37 -38 -131 -77
-22 -9 -53 -22 -70 -29 -39 -16 -89 -38 -145 -63 -25 -11 -64 -29 -87 -39 -24
-10 -43 -21 -43 -26 0 -4 -5 -8 -11 -8 -18 0 -232 -131 -286 -175 -7 -5 -18
-15 -25 -20 -142 -112 -162 -130 -278 -245 -97 -97 -240 -267 -240 -287 0 -4
-14 -23 -30 -42 -17 -18 -30 -38 -30 -42 0 -5 -14 -28 -30 -51 -17 -22 -30
-47 -30 -54 0 -7 -4 -14 -8 -16 -10 -3 -128 -244 -157 -318 -9 -25 -21 -54
-26 -65 -87 -205 -159 -585 -159 -846 0 -173 44 -554 70 -601 6 -10 10 -25 10
-35 0 -21 40 -145 52 -158 4 -5 8 -15 8 -23 0 -13 14 -47 66 -157 12 -27 27
-61 33 -75 6 -14 24 -47 41 -75 16 -27 35 -61 40 -75 6 -13 15 -27 19 -30 4
-3 25 -34 46 -70 22 -36 44 -70 50 -77 13 -15 18 -22 84 -108 72 -93 276 -295
378 -372 46 -35 85 -63 89 -63 3 0 23 -13 44 -30 21 -16 41 -30 44 -30 3 0 34
-17 68 -38 62 -37 173 -93 253 -126 22 -10 49 -21 60 -26 29 -14 192 -67 245
-80 130 -33 169 -43 215 -52 28 -5 64 -14 82 -19 95 -29 690 -28 744 1 10 6
35 10 56 10 21 0 56 5 78 11 22 6 61 14 88 19 26 5 62 13 80 19 17 6 66 20
107 32 41 12 79 25 85 30 5 5 17 9 28 9 10 0 42 11 70 24 29 12 81 36 117 51
36 16 79 39 97 52 45 32 73 31 73 -4 0 -21 -11 -35 -42 -58 -51 -36 -178 -112
-233 -140 -22 -10 -47 -24 -55 -31 -8 -6 -42 -22 -75 -35 -33 -12 -64 -27 -69
-31 -6 -4 -16 -8 -24 -8 -8 0 -28 -6 -45 -13 -73 -31 -185 -66 -232 -73 -16
-3 -45 -7 -63 -10 -18 -3 -30 -9 -27 -15 4 -5 138 -9 335 -9 181 0 452 -4 602
-9 150 -6 535 -13 856 -16 l582 -6 0 981 c0 844 -2 980 -14 980 -8 0 -17 -8
-20 -18 -10 -31 -128 -137 -188 -169 -115 -62 -330 -70 -445 -17 -17 7 -34 14
-38 14 -12 0 -120 88 -135 110 -8 12 -21 28 -27 36 -7 7 -13 16 -13 19 0 4 -6
21 -14 38 -27 60 -48 143 -44 178 l3 34 135 6 c165 6 182 1 192 -60 4 -24 15
-52 25 -63 65 -72 223 -67 282 9 17 21 21 40 21 108 0 89 -5 102 -29 82 -28
-24 -117 -47 -181 -47 -204 0 -405 144 -460 330 -19 64 -24 226 -9 275 40 132
131 251 234 307 152 84 316 96 452 33 17 -8 36 -15 42 -15 6 0 11 -3 11 -8 0
-4 16 -16 36 -27 39 -21 130 -115 147 -152 6 -13 16 -23 24 -23 10 0 13 40 13
205 l0 205 -124 0 c-132 0 -156 4 -156 26 0 18 -19 18 -39 0 -27 -22 -117 -46
-176 -46 -69 0 -182 31 -244 66 -60 35 -153 132 -179 186 -38 83 -52 145 -52
235 0 137 53 264 145 346 11 10 33 30 48 43 58 52 236 114 325 114 85 0 235
-63 316 -132 25 -22 62 -64 82 -94 20 -30 40 -54 45 -54 5 0 9 203 9 485 0
478 0 485 -20 485 -15 0 -20 7 -20 26 0 31 -61 163 -93 202 -63 76 -116 118
-196 156 l-66 31 -2460 1 c-1353 1 -2469 0 -2480 -3z m2031 -1149 c59 -23 107
-46 118 -55 6 -5 31 -23 55 -41 24 -18 61 -57 81 -87 66 -95 70 -123 70 -440
0 -175 -4 -290 -10 -302 -10 -17 -23 -19 -149 -19 -117 0 -140 2 -145 16 -3 9
-6 147 -6 307 -1 315 -1 315 -56 343 -34 18 -104 18 -139 0 -52 -27 -55 -44
-55 -351 0 -156 -3 -290 -6 -299 -5 -14 -27 -16 -140 -16 -131 0 -134 0 -139
23 -4 13 -5 169 -3 348 4 313 5 325 26 365 46 83 140 162 247 205 54 23 199
24 251 3z m898 7 c3 -4 20 -11 37 -15 17 -3 51 -19 75 -36 53 -35 67 -37 101
-10 14 11 31 20 39 20 7 0 14 3 16 8 2 4 26 15 54 25 165 56 393 -30 466 -175
50 -100 48 -83 46 -433 l-3 -330 -139 -3 c-105 -2 -141 1 -148 10 -4 7 -8 147
-8 311 0 166 -4 306 -9 316 -6 10 -28 23 -50 31 -34 11 -48 11 -82 0 -72 -24
-69 -9 -69 -343 0 -166 -4 -308 -8 -315 -7 -9 -43 -12 -148 -10 l-139 3 -5
317 c-3 174 -7 318 -10 320 -60 46 -132 52 -174 13 l-26 -24 0 -303 c0 -167
-4 -309 -8 -316 -7 -9 -43 -12 -148 -10 l-139 3 -3 338 -2 338 26 55 c41 86
153 182 234 199 19 4 42 11 50 16 20 11 167 11 174 0z m1426 -12 c12 -21 10
-232 -1 -244 -3 -2 -28 -8 -55 -11 -76 -9 -110 -28 -118 -65 -3 -17 -6 -155
-6 -306 0 -170 -4 -282 -10 -294 -10 -17 -22 -19 -148 -19 -94 0 -142 4 -150
12 -9 9 -12 95 -12 327 0 273 2 321 17 361 10 25 23 51 30 58 7 7 13 19 13 26
0 35 140 139 203 151 21 4 40 11 43 16 3 5 45 9 94 9 80 0 90 -2 100 -21z
m-1953 -791 c-2 -13 -4 -5 -4 17 -1 22 1 32 4 23 2 -10 2 -28 0 -40z m1048
-286 c72 -25 157 -76 202 -122 46 -46 109 -143 119 -185 4 -17 11 -36 16 -42
17 -21 12 -223 -7 -268 -20 -50 -48 -108 -55 -115 -3 -3 -20 -24 -39 -48 -36
-46 -126 -117 -181 -144 -43 -20 -158 -48 -199 -48 -50 0 -153 29 -220 63 -77
39 -178 137 -209 204 -13 26 -27 56 -33 65 -5 10 -14 49 -21 87 -23 134 14
281 94 378 71 85 126 123 258 181 41 18 218 14 275 -6z m915 -2 c6 -12 9 -66
8 -131 -3 -125 1 -119 -88 -139 -94 -21 -90 -7 -90 -337 0 -158 -3 -298 -6
-310 -6 -23 -9 -23 -155 -23 l-148 0 -6 33 c-4 19 -5 170 -3 338 3 277 5 308
23 344 22 46 69 109 105 144 58 54 181 97 287 100 53 1 64 -2 73 -19z m-2479
-100 c28 -15 23 -52 -11 -85 -16 -16 -30 -34 -30 -39 0 -6 -10 -22 -23 -36
-23 -25 -87 -125 -87 -136 0 -3 -7 -20 -15 -37 -48 -105 -69 -276 -47 -382 27
-126 32 -145 41 -162 6 -10 20 -38 31 -63 41 -87 54 -105 124 -175 76 -76 165
-132 256 -160 30 -10 63 -22 74 -27 28 -15 225 -21 286 -10 108 21 155 35 207
63 29 16 59 26 68 23 24 -10 17 -42 -12 -61 -16 -10 -37 -26 -48 -35 -31 -27
-145 -83 -211 -104 -83 -27 -303 -27 -389 -1 -133 41 -221 90 -350 194 -59 48
-185 204 -185 230 0 7 -4 13 -9 13 -5 0 -12 14 -16 30 -4 17 -11 30 -16 30 -5
0 -9 7 -9 16 0 9 -7 30 -14 47 -36 79 -55 268 -36 356 19 90 49 175 82 238 17
32 34 60 37 63 4 3 25 29 48 58 39 49 147 141 183 155 24 9 50 8 71 -3z m574
-380 c101 -51 150 -134 143 -247 -3 -58 -9 -76 -41 -124 -30 -46 -49 -62 -101
-88 -78 -38 -128 -40 -199 -6 -101 47 -157 131 -157 234 0 99 51 182 140 230
51 27 163 27 215 1z m793 -2637 c-10 -2 -26 -2 -35 0 -10 3 -2 5 17 5 19 0 27
-2 18 -5z"/>
<path d="M3623 3414 c-18 -8 -46 -33 -63 -56 -26 -36 -30 -49 -30 -109 0 -61
3 -72 33 -111 25 -33 46 -47 88 -62 54 -18 57 -18 114 0 76 25 116 71 123 143
9 98 -21 157 -97 194 -41 20 -124 21 -168 1z"/>
<path d="M5193 4526 c-41 -15 -103 -74 -103 -97 0 -10 -4 -21 -10 -24 -26 -16
-1 -134 38 -179 64 -71 208 -74 274 -5 43 44 62 154 36 202 -22 39 -81 97 -99
97 -10 0 -21 5 -24 10 -8 13 -71 11 -112 -4z"/>
<path d="M5185 3412 c-35 -18 -53 -35 -77 -71 -20 -29 -25 -132 -8 -176 13
-34 66 -85 90 -85 10 0 22 -4 25 -10 9 -14 73 -12 117 3 74 26 118 91 118 174
0 46 -24 109 -53 138 -45 44 -153 58 -212 27z"/>
<path d="M5530 369 c-74 -3 -380 -11 -680 -17 -300 -6 -705 -16 -900 -22 -201
-6 -1125 -10 -2127 -10 -1745 0 -1773 0 -1773 -19 0 -11 6 -26 14 -33 7 -8 16
-23 20 -35 19 -58 186 -196 257 -210 16 -3 32 -10 35 -14 8 -13 4951 -12 4959
1 3 6 13 10 21 10 8 0 41 12 71 27 82 38 179 139 226 235 34 68 41 102 19 96
-4 -1 -68 -5 -142 -9z"/>
</g>
</svg>
